<svg width="1373" height="106" viewBox="0 0 1373 106" fill="none" xmlns="http://www.w3.org/2000/svg">
<path d="M239.189 9.58199H285.963C322.553 9.58199 340.848 25.269 340.848 56.6429C340.848 65.3879 339.316 72.9609 336.252 79.3619C333.278 85.6728 329.087 90.5862 323.68 94.1023C318.272 97.6183 312.234 100.188 305.565 101.811C298.986 103.433 291.596 104.245 283.395 104.245H239.189V101.675L250.275 101.134V12.8276L239.189 12.1514V9.58199ZM273.256 100.864H281.637C287.766 100.864 292.993 100.143 297.319 98.7002C301.645 97.2577 305.069 95.4095 307.593 93.1557C310.116 90.8116 312.054 87.7013 313.406 83.8246C314.848 79.8578 315.749 75.9361 316.109 72.0594C316.56 68.0926 316.785 63.2242 316.785 57.4543C316.785 49.9714 316.29 43.7057 315.298 38.657C314.397 33.6083 312.685 29.0555 310.161 24.9985C307.728 20.8514 304.168 17.8312 299.482 15.9379C294.795 13.9545 288.847 12.9628 281.637 12.9628H273.256V100.864Z" fill="black"/>
<path d="M420.429 94.1023L422.187 95.4546C418.221 102.216 411.732 105.597 402.72 105.597C398.484 105.597 395.015 104.515 392.311 102.351C389.607 100.188 388.165 97.0774 387.985 93.0204C384.2 101.405 377.486 105.597 367.843 105.597C361.444 105.597 356.712 103.884 353.648 100.458C352.026 98.9256 350.854 97.1225 350.133 95.0489C349.322 93.0655 348.917 90.9018 348.917 88.5578C348.917 84.8614 349.863 81.6609 351.756 78.9563C353.738 76.2516 356.307 74.2231 359.461 72.8708C362.706 71.5185 365.95 70.5268 369.194 69.8957C372.529 69.2646 375.909 68.9491 379.333 68.9491C381.947 68.9491 384.56 69.0843 387.174 69.3547V54.3439C387.174 51.2787 387.084 48.0331 386.904 44.6072C386.543 41.1813 385.777 38.7471 384.605 37.3046C383.434 35.772 381.271 35.0057 378.117 35.0057C374.422 35.0057 371.312 35.7269 368.789 37.1694V39.3331C368.699 39.9642 368.654 40.9559 368.654 42.3083V47.7176C368.654 52.5859 368.834 57.0035 369.194 60.9703C366.851 61.4211 363.787 61.6465 360.002 61.6465C356.938 61.6465 354.369 61.4211 352.296 60.9703C352.206 59.7983 352.161 57.5895 352.161 54.3439C352.071 52.5408 352.026 49.9263 352.026 46.5005C352.026 43.7958 352.071 41.8124 352.161 40.5502C352.161 38.116 352.206 36.4031 352.296 35.4114C353.198 35.5917 353.964 35.6819 354.595 35.6819C354.865 35.6819 355.09 35.6368 355.27 35.5466C357.884 35.5466 360.317 35.2762 362.57 34.7352C363.562 34.6451 364.733 34.4197 366.085 34.0591C372.123 32.7969 377.936 32.1658 383.524 32.1658C388.21 32.1658 392.401 32.7518 396.096 33.9238C399.791 35.0057 402.945 37.0342 405.559 40.0093C408.173 42.9844 409.479 46.7709 409.479 51.3688L409.074 83.9599V90.5863C409.344 95.8152 410.831 98.4297 413.535 98.4297C416.058 98.4297 418.356 96.9873 420.429 94.1023ZM379.874 96.266C381.586 96.266 383.073 95.68 384.335 94.508C385.777 93.336 386.813 91.8484 387.444 90.0453L387.174 72.0594C385.732 71.7889 384.335 71.6537 382.983 71.6537C379.198 71.6537 376.269 72.8257 374.196 75.1697C372.214 77.5138 371.222 80.579 371.222 84.3656C371.222 92.2992 374.106 96.266 379.874 96.266Z" fill="black"/>
<path d="M465.793 39.6036H464.982C463.18 39.8741 461.467 41.0461 459.845 43.1196C458.673 44.472 457.096 46.6808 455.114 49.746V101.27L469.173 101.946V104.245H423.075V101.946L432.538 101.405V40.6855L422.129 39.8741V37.3046L454.573 32.9772V47.0414C457.457 41.9026 460.476 38.1611 463.63 35.8171C466.785 33.3829 470.975 32.1658 476.202 32.1658C478.906 32.1658 481.475 32.5264 483.908 33.2477C484.178 37.3046 484.313 43.3 484.313 51.2336V56.2372C484.313 58.1305 484.268 59.4377 484.178 60.1589C481.655 60.6097 479.267 60.8351 477.013 60.8351C475.842 60.8351 474.85 60.79 474.039 60.6999C472.507 60.6999 471.381 60.6548 470.66 60.5646C469.218 60.5646 468.181 60.5196 467.551 60.4294C467.28 60.4294 467.01 60.4294 466.739 60.4294C466.469 60.3392 466.199 60.2942 465.928 60.2942C465.748 60.204 465.613 60.1589 465.523 60.1589C465.793 57.274 465.928 54.1636 465.928 50.8279V45.4186V42.173C465.838 41.5419 465.793 40.6855 465.793 39.6036Z" fill="black"/>
<path d="M557.477 67.0558H513.947V67.191C513.947 70.8874 513.992 73.9977 514.082 76.5221C514.263 79.0464 514.713 81.9314 515.434 85.1769C516.245 88.3324 517.282 90.9018 518.544 92.8852C519.895 94.7785 521.833 96.4012 524.356 97.7536C526.97 99.1059 530.079 99.7821 533.684 99.7821C540.443 99.7821 547.338 96.9422 554.367 91.2624L555.719 92.8852C548.059 101.36 538.506 105.597 527.06 105.597C516.065 105.597 507.233 102.397 500.564 95.9955C493.985 89.5945 490.696 81.0298 490.696 70.3014C490.696 59.4828 493.985 50.4222 500.564 43.1196C507.143 35.8171 515.66 32.1658 526.114 32.1658C536.208 32.1658 543.958 35.1409 549.366 41.0912C554.773 46.9512 557.477 54.8398 557.477 64.7568V67.0558ZM525.303 34.7352C519.445 34.7352 515.975 39.7388 514.894 49.746C514.443 52.9916 514.127 57.6797 513.947 63.8102H536.253V59.2123C536.253 51.9999 535.622 46.1849 534.36 41.7673C532.558 37.0793 529.538 34.7352 525.303 34.7352Z" fill="black"/>
<path d="M646.899 93.6966L648.116 95.7251C645.772 98.5199 642.077 100.864 637.03 102.757C631.984 104.65 627.387 105.597 623.242 105.597C615.311 105.597 609.858 104.064 606.884 100.999C604 97.9339 602.558 92.5697 602.558 84.9065L602.964 37.3046H593.096V33.9238L603.234 33.5181L606.208 16.0732H625.134V33.6534H645.953V37.3046H625.134V87.3407C625.134 92.209 625.99 95.3645 627.703 96.8069C628.424 97.7085 629.235 98.2044 630.136 98.2945C631.037 98.565 631.938 98.7002 632.84 98.7002C637.436 98.7002 642.122 97.0323 646.899 93.6966Z" fill="black"/>
<path d="M686.651 105.597C675.386 105.597 666.644 102.577 660.426 96.5365C654.207 90.4961 651.098 81.9764 651.098 70.9775C651.098 59.4377 654.387 50.1067 660.966 42.9844C667.636 35.772 676.603 32.1658 687.868 32.1658C699.404 32.1658 708.326 35.3212 714.635 41.6321C721.033 47.8528 724.233 56.5978 724.233 67.8672C724.233 80.0381 720.943 89.3692 714.364 95.8603C707.785 102.351 698.548 105.597 686.651 105.597ZM687.463 103.298C692.96 103.298 696.565 100.413 698.277 94.6432C700.08 88.693 700.981 79.993 700.981 68.5434C700.981 55.561 699.854 46.4103 697.601 41.0912C695.529 36.8539 692.059 34.7352 687.192 34.7352C684.939 34.7352 683.001 35.2762 681.379 36.358C677.955 38.8824 675.837 44.2917 675.026 52.5859C674.485 57.0035 674.215 62.4579 674.215 68.9491C674.215 81.6609 675.161 90.6313 677.053 95.8603C678.045 98.565 679.397 100.458 681.109 101.54C682.821 102.712 684.939 103.298 687.463 103.298Z" fill="black"/>
<path d="M769.823 7.82397L759.413 7.01258V4.44316L792.398 0.115723V70.0309H797.67L815.515 40.9559L803.348 35.9523V33.6534H835.522V35.9523L819.435 41.2264L809.567 57.3191L837.144 101.675L841.47 101.946V104.245H805.917V101.946L810.648 101.54L795.237 74.0879H792.398V101.54L799.293 101.946V104.245H760.36V101.946L769.823 101.405V7.82397Z" fill="black"/>
<path d="M851.556 40.6855L841.147 39.8741V37.3046L873.591 32.9772V48.9346C877.196 43.9761 881.387 39.9642 886.163 36.899C891.03 33.7435 896.257 32.1658 901.845 32.1658C908.604 32.1658 913.516 34.2394 916.58 38.3865C919.644 42.5336 921.176 48.1233 921.176 55.1553V66.2444V78.2801C921.176 79.6324 921.131 81.6158 921.041 84.2303C921.041 86.8448 920.996 88.8282 920.906 90.1805C920.906 91.4427 920.861 93.336 920.771 95.8603C920.771 98.3847 920.726 100.233 920.635 101.405L931.856 101.946V104.245H889.137V101.946L898.06 101.405C898.15 100.233 898.195 98.4748 898.195 96.1308C898.285 93.7868 898.33 91.9836 898.33 90.7215C898.42 89.4593 898.465 87.521 898.465 84.9065C898.555 82.292 898.6 80.3537 898.6 79.0915V67.5967V57.5895C898.6 50.8279 898.015 46.1398 896.843 43.5253C895.581 40.9109 893.599 39.6036 890.895 39.6036C888.552 39.6036 885.623 40.8658 882.108 43.3901C879.404 45.644 876.746 48.3486 874.132 51.5041V101.405L884.812 101.946V104.245H842.093V101.946L851.556 101.405V40.6855Z" fill="black"/>
<path d="M971.014 105.597C959.748 105.597 951.006 102.577 944.788 96.5365C938.569 90.4961 935.46 81.9764 935.46 70.9775C935.46 59.4377 938.75 50.1067 945.329 42.9844C951.998 35.772 960.965 32.1658 972.23 32.1658C983.766 32.1658 992.688 35.3212 998.997 41.6321C1005.4 47.8528 1008.59 56.5978 1008.59 67.8672C1008.59 80.0381 1005.31 89.3692 998.727 95.8603C992.148 102.351 982.91 105.597 971.014 105.597ZM971.825 103.298C977.322 103.298 980.927 100.413 982.64 94.6432C984.442 88.693 985.343 79.993 985.343 68.5434C985.343 55.561 984.217 46.4103 981.964 41.0912C979.891 36.8539 976.421 34.7352 971.554 34.7352C969.301 34.7352 967.364 35.2762 965.742 36.358C962.317 38.8824 960.199 44.2917 959.388 52.5859C958.847 57.0035 958.577 62.4579 958.577 68.9491C958.577 81.6609 959.523 90.6313 961.416 95.8603C962.407 98.565 963.759 100.458 965.471 101.54C967.183 102.712 969.301 103.298 971.825 103.298Z" fill="black"/>
<path d="M1084.95 36.4933L1105.77 93.1557L1121.05 41.2264L1106.18 35.9523V33.6534H1134.3V35.9523L1125.1 41.0912L1105.5 104.245C1101.36 104.245 1095.14 104.425 1086.85 104.786L1071.03 62.0522L1058.05 104.245C1053.91 104.245 1047.69 104.425 1039.4 104.786L1014.25 36.358L1009.52 35.9523V33.6534H1045.75V35.9523L1037.5 36.4933L1058.32 93.1557L1069.41 57.3191L1061.7 36.358L1055.62 35.9523V33.6534H1092.25V35.9523L1084.95 36.4933Z" fill="black"/>
<line x1="151.536" y1="33.9143" x2="1221.21" y2="33.9144" stroke="black" stroke-width="0.742826"/>
<line x1="151.536" y1="105.226" x2="1221.21" y2="105.226" stroke="black" stroke-width="0.742826"/>
<line x1="151.536" y1="0.486894" x2="1221.21" y2="0.486987" stroke="black" stroke-width="0.742826"/>
<line x1="151.536" y1="9.40114" x2="1221.21" y2="9.40123" stroke="black" stroke-width="0.742826"/>
</svg>
